<svg width="254.509" height="68.932" viewBox="0 0 254.509 68.932" xmlns="http://www.w3.org/2000/svg"><g id="svgGroup" stroke-linecap="round" fill-rule="nonzero" font-size="9pt" stroke="#000000" stroke-width=".5" fill="#000000" style="stroke:#000000;stroke-width:.5;fill:#000000"><path d="M 73.757 60.375 L 76.157 43.8 L 60.032 43.8 L 57.482 58.425 Q 57.107 60.75 55.757 61.725 L 55.757 61.875 Q 57.182 62.4 58.607 62.4 Q 59.657 62.4 60.632 61.988 Q 61.607 61.575 61.907 61.575 Q 62.507 61.575 62.507 62.25 Q 62.507 63.075 61.532 64.275 Q 59.807 66.45 58.57 67.313 Q 57.332 68.175 56.057 68.175 A 13.961 13.961 0 0 1 53.67 67.773 A 60.646 60.646 0 0 1 53.132 67.65 Q 50.957 66.975 49.457 66.975 Q 47.882 66.975 46.495 67.575 Q 45.107 68.175 44.807 68.175 Q 44.282 68.175 44.282 67.275 A 5.324 5.324 0 0 1 46.391 63.637 A 14.152 14.152 0 0 1 46.682 63.375 Q 47.807 62.25 48.332 61.463 Q 48.857 60.675 49.232 59.25 A 59.646 59.646 0 0 0 50.067 55.326 A 144.916 144.916 0 0 0 50.132 54.975 L 55.382 22.8 Q 54.857 22.8 53.657 22.575 Q 52.457 22.35 50.957 22.35 Q 48.782 22.35 47.32 22.95 Q 45.857 23.55 44.657 25.125 Q 44.282 25.65 43.907 25.988 Q 43.532 26.325 43.157 26.325 A 0.606 0.606 0 0 1 42.557 25.575 Q 42.557 25.05 42.67 24.6 Q 42.782 24.15 42.782 24 Q 43.457 20.475 46.457 18.3 Q 49.457 16.125 53.732 16.125 Q 54.632 16.125 56.582 16.275 Q 58.307 16.5 60.182 16.5 A 36.319 36.319 0 0 0 62.334 16.374 A 194.279 194.279 0 0 0 63.557 16.275 Q 64.907 16.125 65.432 16.125 A 69.11 69.11 0 0 0 62.782 26.104 A 44.778 44.778 0 0 0 62.657 26.85 L 61.007 37.425 L 77.207 37.425 L 79.007 27.075 A 66.095 66.095 0 0 1 81.472 17.252 A 33.665 33.665 0 0 1 83.432 12.638 Q 86.207 7.35 90.67 4.988 A 24.8 24.8 0 0 1 99.937 2.474 A 41.349 41.349 0 0 1 102.107 2.325 Q 103.832 2.325 104.732 2.025 Q 105.257 1.875 105.595 1.725 Q 105.932 1.575 106.157 1.575 Q 106.757 1.575 106.757 2.4 Q 106.757 3.75 105.332 5.138 Q 103.907 6.525 100.982 6.975 Q 100.232 7.05 96.97 7.425 Q 93.707 7.8 91.232 12.113 A 27.513 27.513 0 0 0 88.69 18.781 A 64.236 64.236 0 0 0 87.407 25.125 L 82.232 58.425 Q 82.007 59.55 82.007 60.15 Q 82.007 60.9 82.307 61.2 Q 82.607 61.5 83.132 61.5 A 5.403 5.403 0 0 0 86.547 59.655 A 14.931 14.931 0 0 0 86.807 59.4 Q 87.332 58.95 87.782 58.575 Q 88.232 58.2 88.607 58.2 Q 89.057 58.2 89.057 59.025 Q 89.057 60.675 87.22 63.075 Q 85.382 65.475 82.682 67.2 Q 79.982 68.925 77.582 68.925 A 4.116 4.116 0 0 1 73.473 64.113 A 13.224 13.224 0 0 1 73.457 63.45 Q 73.457 62.775 73.757 60.375 Z M 163.382 61.65 L 158.657 50.325 A 33.905 33.905 0 0 0 157.274 47.313 A 6.416 6.416 0 0 0 157.195 47.175 Q 156.707 46.35 155.657 45.863 Q 154.607 45.375 152.507 45.375 L 150.407 58.35 Q 150.032 60.45 148.682 61.65 L 148.682 61.725 Q 149.807 62.4 151.382 62.4 Q 152.357 62.4 153.295 61.988 Q 154.232 61.575 154.607 61.575 Q 155.207 61.575 155.207 62.25 Q 155.207 63 154.457 64.275 A 6.977 6.977 0 0 1 149.984 68.087 A 4.843 4.843 0 0 1 149.057 68.175 Q 148.382 68.175 147.407 67.95 Q 146.432 67.725 146.057 67.65 Q 143.882 66.975 142.382 66.975 Q 140.732 66.975 139.382 67.575 Q 138.032 68.175 137.732 68.175 Q 137.132 68.175 137.132 67.275 A 5.324 5.324 0 0 1 139.241 63.637 A 14.152 14.152 0 0 1 139.532 63.375 Q 141.107 61.8 141.782 60.338 Q 142.457 58.875 143.132 54.975 L 147.032 30.45 Q 147.257 28.95 148.607 27.488 Q 149.957 26.025 151.795 25.05 Q 153.632 24.075 155.357 24.075 Q 156.107 24.075 156.332 24.263 Q 156.557 24.45 156.557 24.825 Q 156.557 25.275 155.807 26.7 Q 155.057 28.125 154.607 30.975 L 152.957 41.7 Q 154.082 41.925 155.807 41.925 A 10.823 10.823 0 0 0 163.472 39.397 A 8.193 8.193 0 0 0 163.87 39 A 11.439 11.439 0 0 0 166.601 31.176 A 20.63 20.63 0 0 0 166.607 30.675 A 10.506 10.506 0 0 0 164.867 24.222 A 6.467 6.467 0 0 0 164.207 23.475 A 9.335 9.335 0 0 0 158.598 21.278 A 22.716 22.716 0 0 0 156.107 21.15 Q 151.532 21.15 147.557 22.725 Q 143.582 24.3 140.507 27.225 L 139.607 28.125 Q 139.007 28.725 138.632 28.913 Q 138.257 29.1 137.882 29.1 A 0.675 0.675 0 0 1 137.282 28.875 Q 137.132 28.65 137.132 28.2 Q 137.132 27.525 137.507 26.7 Q 138.707 23.7 141.52 21.113 Q 144.332 18.525 148.607 16.95 Q 152.882 15.375 158.282 15.375 A 22.465 22.465 0 0 1 167.39 17.025 A 13.694 13.694 0 0 1 170.245 18.713 Q 174.557 22.05 174.557 28.125 Q 174.557 33.375 171.107 37.388 Q 167.657 41.4 161.582 43.5 Q 164.957 45.15 166.382 48.525 L 170.282 57.975 A 8.215 8.215 0 0 0 171.981 60.915 A 2.181 2.181 0 0 0 172.007 60.938 Q 172.832 61.65 173.957 61.65 Q 176.207 61.65 177.707 59.55 Q 178.007 59.1 178.307 58.725 Q 178.607 58.35 178.982 58.35 Q 179.957 58.35 179.957 60.15 Q 179.957 62.4 178.832 64.425 Q 177.707 66.45 175.757 67.688 Q 173.807 68.925 171.482 68.925 A 7.723 7.723 0 0 1 164.904 64.661 A 20.082 20.082 0 0 1 163.382 61.65 Z M 196.832 54.975 L 202.457 22.875 L 197.957 22.875 A 25.706 25.706 0 0 0 192.504 23.337 A 6.899 6.899 0 0 0 190.645 24 Q 188.657 25.125 188.657 28.125 Q 188.657 30 189.257 31.35 Q 189.857 32.7 189.857 33 Q 189.857 33.9 188.77 35.55 Q 187.682 37.2 186.332 38.475 Q 184.982 39.75 184.157 39.75 Q 183.857 39.75 183.67 39.488 Q 183.482 39.225 183.407 39.15 Q 182.207 36.6 182.207 33 Q 182.207 28.275 184.607 24.413 Q 187.007 20.55 191.357 18.338 Q 195.707 16.125 201.257 16.125 L 217.307 16.125 A 20.97 20.97 0 0 0 222.429 15.633 A 6.066 6.066 0 0 0 223.72 15.15 Q 225.557 14.175 225.557 11.625 Q 225.557 9.9 224.807 8.475 Q 224.057 7.05 224.057 6.675 A 5.633 5.633 0 0 1 225.038 4.477 A 23.482 23.482 0 0 1 225.07 4.425 Q 226.082 2.775 227.282 1.388 Q 228.482 0 229.082 0 Q 229.307 0 229.457 0.113 Q 229.607 0.225 229.682 0.3 Q 230.732 1.575 231.257 3.563 Q 231.782 5.55 231.782 7.725 Q 231.782 14.775 226.57 18.825 A 20.399 20.399 0 0 1 215.545 22.756 A 33.739 33.739 0 0 1 212.657 22.875 L 210.482 22.875 L 204.257 58.35 Q 203.732 60.6 202.457 61.65 L 202.457 61.725 Q 203.732 62.4 205.457 62.4 Q 206.507 62.4 207.595 61.988 Q 208.682 61.575 208.982 61.575 Q 209.357 61.575 209.47 61.725 Q 209.582 61.875 209.582 62.25 Q 209.582 62.925 209.207 63.525 Q 208.832 64.125 208.757 64.275 Q 206.957 66.45 205.532 67.313 Q 204.107 68.175 202.757 68.175 Q 202.082 68.175 201.145 67.95 Q 200.207 67.725 199.832 67.65 Q 197.657 66.975 196.082 66.975 Q 194.432 66.975 193.082 67.575 Q 191.732 68.175 191.432 68.175 Q 190.832 68.175 190.832 67.275 A 5.246 5.246 0 0 1 192.847 63.796 A 15.208 15.208 0 0 1 193.307 63.375 Q 194.882 61.8 195.482 60.375 Q 196.082 58.95 196.832 54.975 Z M 118.607 50.625 L 117.107 51.375 L 109.307 51.375 Q 108.107 54.9 105.932 57.713 Q 103.757 60.525 101.132 61.95 L 101.132 62.025 Q 102.182 62.475 103.382 62.475 Q 104.282 62.475 105.332 62.1 Q 106.382 61.725 106.607 61.725 A 0.523 0.523 0 0 1 107.057 62.4 Q 107.057 63.375 106.307 64.425 Q 105.107 66.3 103.607 67.238 Q 102.107 68.175 100.682 68.175 A 13.898 13.898 0 0 1 97.959 67.716 A 49.527 49.527 0 0 1 97.382 67.575 Q 94.832 66.975 93.932 66.975 Q 92.807 66.975 91.27 67.575 A 9.173 9.173 0 0 1 89.442 68.175 A 0.33 0.33 0 0 1 89.432 68.175 Q 89.132 68.175 88.945 67.95 Q 88.757 67.725 88.757 67.425 Q 88.757 66.6 89.432 65.175 Q 90.107 63.75 91.007 63.375 Q 91.682 63 93.182 62.625 Q 96.107 61.575 98.057 59.325 Q 100.007 57.075 101.432 53.775 A 108.582 108.582 0 0 0 103.506 48.508 A 258.448 258.448 0 0 0 105.032 44.25 A 231.218 231.218 0 0 1 107.704 36.779 A 100.904 100.904 0 0 1 108.707 34.238 Q 110.207 30.6 112.307 27.3 Q 114.407 24 117.332 21.6 L 117.332 21.525 Q 116.657 21.525 114.707 21.225 A 57.358 57.358 0 0 0 110.876 20.864 A 11.713 11.713 0 0 0 110.357 20.85 Q 106.682 20.85 103.795 22.388 Q 100.907 23.925 99.107 26.85 Q 98.432 27.75 98.17 28.05 Q 97.907 28.35 97.457 28.35 Q 96.857 28.35 96.857 27.45 Q 96.857 26.55 97.157 25.65 Q 98.507 21 102.595 18.188 Q 106.682 15.375 112.532 15.375 A 33.721 33.721 0 0 1 117.548 15.871 A 77.929 77.929 0 0 1 119.057 16.125 Q 123.407 16.875 125.582 16.875 Q 128.657 16.875 130.757 16.125 L 130.757 16.2 A 24.731 24.731 0 0 0 128.392 22.696 A 54.247 54.247 0 0 0 127.57 27 A 100.447 100.447 0 0 0 126.559 38.84 A 154.711 154.711 0 0 0 126.482 43.8 A 113.192 113.192 0 0 0 127.126 56.479 A 76.338 76.338 0 0 0 127.457 59.025 Q 127.607 60.45 128.095 61.013 Q 128.582 61.575 129.557 61.575 Q 130.457 61.575 131.32 61.163 Q 132.182 60.75 133.382 60 Q 134.507 59.175 134.882 59.175 Q 135.332 59.175 135.332 60 Q 135.332 60.9 134.657 62.025 Q 133.082 64.725 130.045 66.825 Q 127.007 68.925 124.307 68.925 Q 122.357 68.925 121.307 67.688 Q 120.257 66.45 119.657 63.675 Q 119.057 61.125 118.87 58.05 Q 118.682 54.975 118.607 50.625 Z M 111.257 45.075 L 118.607 45.075 A 136.104 136.104 0 0 1 119.28 34.893 A 83.508 83.508 0 0 1 119.47 33.3 Q 120.107 28.35 121.382 23.625 L 121.307 23.625 Q 118.157 26.175 115.87 30.825 A 50.773 50.773 0 0 0 112.573 39.917 A 81.751 81.751 0 0 0 111.932 42.45 L 111.257 45.075 Z M 6.032 57.75 L 10.157 30.3 Q 10.382 28.875 11.695 27.413 Q 13.007 25.95 14.807 25.013 Q 16.607 24.075 18.407 24.075 Q 19.607 24.075 19.607 24.825 Q 19.607 25.275 18.932 26.663 A 15.683 15.683 0 0 0 17.821 30.812 A 36.586 36.586 0 0 0 17.807 30.9 L 16.682 38.7 L 22.907 38.7 Q 26.207 37.95 28.195 35.063 Q 30.182 32.175 30.182 28.35 Q 30.182 24.525 27.857 22.763 A 10.324 10.324 0 0 0 22.346 21.062 A 23.897 23.897 0 0 0 20.582 21 A 22.721 22.721 0 0 0 11.899 22.468 A 13.984 13.984 0 0 0 10.57 23.1 Q 6.707 25.2 3.707 28.35 Q 2.732 29.4 2.245 29.775 Q 1.757 30.15 1.232 30.15 Q 0.407 30.15 0.407 29.175 Q 0.407 28.875 0.782 27.6 Q 2.132 24.375 5.282 21.563 Q 8.432 18.75 13.195 17.063 Q 17.957 15.375 23.657 15.375 A 23.48 23.48 0 0 1 32.146 16.725 A 12.917 12.917 0 0 1 35.02 18.263 Q 39.032 21.15 39.032 26.7 A 14.493 14.493 0 0 1 31.83 39.096 A 25.82 25.82 0 0 1 30.557 39.9 Q 34.232 42.3 36.22 45.375 Q 38.207 48.45 38.207 52.05 Q 38.207 56.625 35.282 60.338 Q 32.357 64.05 27.745 66.113 Q 23.132 68.175 18.257 68.175 A 30.437 30.437 0 0 1 15.595 68.007 A 140.428 140.428 0 0 1 11.207 67.5 A 98.347 98.347 0 0 0 7.362 67.094 A 12.485 12.485 0 0 0 6.482 67.05 Q 5.057 67.05 2.432 67.8 Q 1.307 68.175 0.782 68.175 Q 0.032 68.175 0.032 67.125 Q 0.032 65.7 0.857 64.575 Q 1.682 63.45 3.107 62.325 Q 4.607 61.125 5.17 60.3 Q 5.732 59.475 6.032 57.75 Z M 23.507 44.4 L 15.707 44.4 L 13.832 57.375 Q 13.682 58.65 13.42 59.363 Q 13.157 60.075 12.632 60.825 L 12.707 60.9 Q 13.757 61.2 15.67 61.425 Q 17.582 61.65 19.232 61.65 A 14.062 14.062 0 0 0 25.885 60.3 A 7.646 7.646 0 0 0 26.882 59.663 Q 29.507 57.675 29.507 53.775 Q 29.507 47.7 23.507 44.4 Z M 233.732 54.975 L 238.457 21.825 Q 236.957 21.825 235.382 22.05 Q 233.807 22.2 232.457 22.5 Q 231.107 22.8 230.657 22.8 Q 229.982 22.8 229.982 21.975 Q 229.982 21.075 230.582 20.025 Q 232.532 16.125 236.882 16.125 L 240.707 16.125 Q 246.032 16.125 248.882 15.9 Q 253.892 15.553 253.931 15.527 A 0.072 0.072 0 0 0 253.907 15.525 A 0.54 0.54 0 0 1 254.361 15.717 A 0.896 0.896 0 0 1 254.507 16.275 Q 254.507 16.875 253.907 17.85 Q 253.532 18.45 253.007 19.425 Q 252.482 20.4 251.882 20.738 Q 251.282 21.075 250.157 21.225 L 248.282 21.375 Q 247.532 21.375 246.482 21.525 L 241.232 57.75 Q 241.082 59.025 240.632 60.113 Q 240.182 61.2 239.582 61.725 L 239.582 61.875 Q 242.582 62.325 243.407 62.325 Q 244.832 62.325 245.695 61.95 Q 246.557 61.575 246.707 61.575 Q 247.307 61.575 247.307 62.25 Q 247.307 62.85 246.332 64.425 A 7.629 7.629 0 0 1 240.931 68.151 A 5.687 5.687 0 0 1 240.407 68.175 Q 239.582 68.175 237.632 67.725 Q 234.932 66.975 232.907 66.975 Q 230.507 66.975 228.782 67.575 A 13.644 13.644 0 0 1 226.806 68.172 A 0.477 0.477 0 0 1 226.757 68.175 A 0.606 0.606 0 0 1 226.157 67.425 Q 226.157 66.375 227.02 64.8 Q 227.882 63.225 229.082 62.625 Q 229.382 62.475 230.47 61.988 Q 231.557 61.5 231.932 61.125 Q 232.682 60.525 233.057 59.1 Q 233.432 57.675 233.732 54.975 Z"/></g></svg>